<svg version="1.1" xmlns="http://www.w3.org/2000/svg" xmlns:xlink="http://www.w3.org/1999/xlink" width="1560" height="804"><defs/><g><path fill="none" stroke="#F76F53" paint-order="fill stroke markers" d=" M 20 437.5148476045153 L 21 439.2645251392579 L 22 441.0104005917336 L 23 442.7522958310775 L 24 444.49003313252376 L 25 446.22343519553914 L 26 447.95232516191277 L 27 449.67652663380096 L 28 451.39586369172486 L 29 453.1101609125196 L 30 454.81924338723246 L 31 456.522936738969 L 32 458.22106714068434 L 33 459.9134613329189 L 34 461.59994664147604 L 35 463.28035099503944 L 36 464.9545029427302 L 37 466.6222316715992 L 38 468.28336702405545 L 39 469.9377395152273 L 40 471.5851803502544 L 41 473.22552144151024 L 42 474.8585954257519 L 43 476.48423568119597 L 44 478.10227634451894 L 45 479.71255232778026 L 46 481.314899335266 L 47 482.90915388025195 L 48 484.49515330168424 L 49 486.07273578077536 L 50 487.64174035751444 L 51 489.2020069470901 L 52 490.7533763562239 L 53 492.29569029941234 L 54 493.82879141507703 L 55 495.35252328162017 L 56 496.86673043338413 L 57 498.37125837651337 L 58 499.8659536047177 L 59 501.3506636149341 L 60 502.8252369228869 L 61 504.2895230785435 L 62 505.74337268146445 L 63 507.1866373960472 L 64 508.6191699666604 L 65 510.04082423266823 L 66 511.4514551433434 L 67 512.8509187726665 L 68 514.2390723340106 L 69 515.61577419471 L 70 516.9808838905101 L 71 518.3342621399001 L 72 519.6757708583232 L 73 521.0052731722652 L 74 522.3226334332198 L 75 523.6277172315288 L 76 524.9203914100958 L 77 526.2005240779722 L 78 527.4679846238138 L 79 528.7226437292073 L 80 529.9643733818646 L 81 531.193046888683 L 82 532.4085388886733 L 83 533.6107253657486 L 84 534.7994836613786 L 85 535.9746924871043 L 86 537.1362319369126 L 87 538.2839834994704 L 88 539.417830070217 L 89 540.5376559633106 L 90 541.6433469234336 L 91 542.7347901374485 L 92 543.8118742459088 L 93 544.8744893544214 L 94 545.9225270448578 L 95 546.9558803864172 L 96 547.9744439465363 L 97 548.9781138016458 L 98 549.9667875477746 L 99 550.9403643109977 L 100 551.8987447577281 L 101 552.841831104852 L 102 553.7695271297056 L 103 554.6817381798924 L 104 555.5783711829409 L 105 556.4593346558005 L 106 557.3245387141754 L 107 558.1738950816956 L 108 559.0073170989237 L 109 559.8247197321969 L 110 560.6260195823022 L 111 561.4111348929868 L 112 562.1799855592984 L 113 562.9324931357592 L 114 563.6685808443691 L 115 564.3881735824395 L 116 565.0911979302564 L 117 565.7775821585705 L 118 566.4472562359164 L 119 567.1001518357577 L 120 567.7362023434584 L 121 568.3553428630792 L 122 568.9575102239993 L 123 569.5426429873612 L 124 570.1106814523398 L 125 570.6615676622332 L 126 571.1952454103761 L 127 571.7116602458747 L 128 572.2107594791621 L 129 572.6924921873743 L 130 573.1568092195461 L 131 573.6036632016251 L 132 574.0330085413063 L 133 574.4448014326834 L 134 574.8389998607179 L 135 575.2155636055267 L 136 575.5744542464848 L 137 575.9156351661462 L 138 576.2390715539796 L 139 576.5447304099197 L 140 576.8325805477348 L 141 577.1025925982086 L 142 577.3547390121364 L 143 577.5889940631362 L 144 577.8053338502733 L 145 578.0037363004994 L 146 578.1841811709045 L 147 578.3466500507815 L 148 578.4911263635059 L 149 578.6175953682265 L 150 578.7260441613689 L 151 578.8164616779532 L 152 578.8888386927217 L 153 578.9431678210814 L 154 578.9794435198561 L 155 578.9976620878533 L 156 578.9978216662407 L 157 578.9799222387369 L 158 578.943965631612 L 159 578.889955513502 L 160 578.8178973950342 L 161 578.7277986282652 L 162 578.6196684059306 L 163 578.4935177605068 L 164 578.3493595630861 L 165 578.1872085220624 L 166 578.0070811816315 L 167 577.8089959201028 L 168 577.5929729480238 L 169 577.3590343061185 L 170 577.1072038630382 L 171 576.8375073129267 L 172 576.5499721727982 L 173 576.2446277797303 L 174 575.9215052878699 L 175 575.5806376652555 L 176 575.2220596904532 L 177 574.8458079490076 L 178 574.4519208297103 L 179 574.0404385206816 L 180 573.6114030052713 L 181 573.1648580577746 L 182 572.700849238966 L 183 572.2194238914509 L 184 571.7206311348345 L 185 571.2045218607113 L 186 570.671148727472 L 187 570.1205661549304 L 188 569.5528303187721 L 189 568.9679991448215 L 190 568.3661323031332 L 191 567.7472912019025 L 192 567.111538981201 L 193 566.4589405065335 L 194 565.7895623622207 L 195 565.1034728446052 L 196 564.400741955083 L 197 563.6814413929619 L 198 562.9456445481457 L 199 562.193426493646 L 200 561.4248639779231 L 201 560.6400354170552 L 202 559.8390208867372 L 203 559.0219021141113 L 204 558.1887624694281 L 205 557.3396869575402 L 206 556.4747622092291 L 207 555.5940764723673 L 208 554.6977196029131 L 209 553.7857830557435 L 210 552.8583598753225 L 211 551.9155446862084 L 212 550.9574336833988 L 213 549.9841246225164 L 214 548.9957168098344 L 215 547.9923110921452 L 216 546.9740098464697 L 217 545.9409169696132 L 218 544.8931378675645 L 219 543.8307794447404 L 220 542.7539500930797 L 221 541.6627596809831 L 222 540.5573195421039 L 223 539.4377424639879 L 224 538.3041426765669 L 225 537.156635840503 L 226 535.9953390353878 L 227 534.8203707477976 L 228 533.631850859203 L 229 532.429900633739 L 230 531.214642705831 L 231 529.9862010676834 L 232 528.7447010566286 L 233 527.4902693423385 L 234 526.2230339139007 L 235 524.9431240667601 L 236 523.6506703895265 L 237 522.3458047506506 L 238 521.0286602849704 L 239 519.6993713801266 L 240 518.3580736628512 L 241 517.0049039851303 L 242 515.6400004102402 L 243 514.2635021986613 L 244 512.8755497938698 L 245 511.47628480800756 L 246 510.06585000743405 L 247 508.6443892981597 L 248 507.2120477111632 L 249 505.76897138759455 L 250 504.3153075638635 L 251 502.85120455661763 L 252 501.3768117476099 L 253 499.89227956845673 L 254 498.3977594852897 L 255 496.893403983302 L 256 495.3793665511895 L 257 493.85580166549147 L 258 492.32286477482853 L 259 490.7807122840427 L 260 489.22950153823945 L 261 487.6693908067339 L 262 486.1005392669023 L 263 484.52310698794196 L 264 482.9372549145387 L 265 481.34314485044615 L 266 479.74093944197716 L 267 478.1308021614084 L 268 476.51289729030196 L 269 474.8873899027438 L 270 473.2544458485009 L 271 471.61423173609984 L 272 469.96691491582817 L 273 468.3126634626591 L 274 466.6516461591035 L 275 464.98403247798865 L 276 463.30999256516714 L 277 461.62969722215735 L 278 459.9433178887159 L 279 458.2510266253463 L 280 456.5529960957436 L 281 454.8493995491775 L 282 453.1404108028157 L 283 451.4262042239898 L 284 449.7069547124043 L 285 447.98283768229163 L 286 446.25402904451516 L 287 444.5207051886208 L 288 442.78304296483975 L 289 441.0412196660453 L 290 439.2954130096631 L 291 437.54580111953885 L 292 435.7925625077647 L 293 434.0358760564653 L 294 432.27592099954705 L 295 430.5128769044104 L 296 428.746923653629 L 297 426.97824142659647 L 298 425.2070106811425 L 299 423.43341213512076 L 300 421.65762674797094 L 301 419.87983570225475 L 302 418.1002203851704 L 303 416.31896237004577 L 304 414.5362433978124 L 305 412.7522453584625 L 306 410.9671502724912 L 307 409.1811402723244 L 308 407.3943975837366 L 309 405.607104507258 L 310 403.81944339957454 L 311 402.03159665492257 L 312 400.24374668647846 L 313 398.4560759077477 L 314 396.66876671395323 L 315 394.88200146342547 L 316 393.0959624589966 L 317 391.3108319294004 L 318 389.52679201067923 L 319 387.74402472760084 L 320 385.96271197508685 L 321 384.1830354996535 L 322 382.40517688086857 L 323 380.6293175128249 L 324 378.85563858563233 L 325 377.0843210669318 L 326 375.31554568343046 L 327 373.54949290246265 L 328 371.786342913577 L 329 370.0262756101515 L 330 368.2694705710391 L 331 366.5161070422456 L 332 364.76636391864093 L 333 363.02041972570674 L 334 361.27845260132176 L 335 359.5406402775861 L 336 357.80716006268733 L 337 356.0781888228103 L 338 354.35390296409105 L 339 352.6344784146182 L 340 350.9200906064834 L 341 349.21091445788204 L 342 347.50712435526606 L 343 345.8088941355517 L 344 344.11639706838287 L 345 342.42980583845275 L 346 340.7492925278845 L 347 339.07502859867395 L 348 337.40718487519575 L 349 335.7459315267735 L 350 334.0914380503181 L 351 332.443873253034 L 352 330.8034052351954 L 353 329.1702013729955 L 354 327.54442830146917 L 355 325.926251897491 L 356 324.3158372628512 L 357 322.7133487074102 L 358 321.1189497323341 L 359 319.5328030134132 L 360 317.9550703844636 L 361 316.38591282081575 L 362 314.82549042289037 L 363 313.27396239986297 L 364 311.7314870534202 L 365 310.1982217616085 L 366 308.6743229627764 L 367 307.15994613961357 L 368 305.6552458032871 L 369 304.1603754776763 L 370 302.6754876837093 L 371 301.200733923801 L 372 299.7362646663954 L 373 298.2822293306138 L 374 296.83877627100895 L 375 295.40605276242894 L 376 293.9842049849909 L 377 292.57337800916605 L 378 291.1737157809781 L 379 289.78536110731716 L 380 288.4084556413684 L 381 287.04313986815964 L 382 285.68955309022806 L 383 284.34783341340653 L 384 283.0181177327331 L 385 281.7005417184839 L 386 280.39523980233037 L 387 279.1023451636231 L 388 277.8219897158045 L 389 276.5543040929486 L 390 275.29941763643336 L 391 274.0574583817436 L 392 272.8285530454076 L 393 271.6128270120687 L 394 270.4104043216918 L 395 269.2214076569078 L 396 268.0459583304967 L 397 266.88417627300964 L 398 265.7361800205328 L 399 264.6020867025927 L 400 263.4820120302062 L 401 262.37607028407433 L 402 261.2843743029216 L 403 260.20703547198445 L 404 259.14416371164555 L 405 258.0958674662188 L 406 257.06225369288563 L 407 256.0434278507813 L 408 255.0394938902352 L 409 254.05055424216508 L 410 253.076709807626 L 411 252.1180599475151 L 412 251.17470247243438 L 413 250.2467336327107 L 414 249.33424810857576 L 415 248.4373390005055 L 416 247.5560978197214 L 417 246.69061447885375 L 418 245.8409772827674 L 419 245.00727291955263 L 420 244.18958645168019 L 421 243.388001307322 L 422 242.60259927183984 L 423 241.83346047944016 L 424 241.08066340499815 L 425 240.34428485605125 L 426 239.62439996496232 L 427 238.9210821812538 L 428 238.23440326411392 L 429 237.56443327507515 L 430 236.91124057086546 L 431 236.2748917964345 L 432 235.65545187815346 L 433 235.05298401719068 L 434 234.46754968306342 L 435 233.8992086073661 L 436 233.34801877767575 L 437 232.81403643163588 L 438 232.29731605121827 L 439 231.7979103571644 L 440 231.31587030360626 L 441 230.8512450728676 L 442 230.40408207044587 L 443 229.97442692017538 L 444 229.56232345957244 L 445 229.1678137353625 L 446 228.79093799919036 L 447 228.43173470351306 L 448 228.09024049767675 L 449 227.7664902241773 L 450 227.46051691510544 L 451 227.17235178877635 L 452 226.90202424654464 L 453 226.64956186980442 L 454 226.41499041717523 L 455 226.1983338218739 L 456 225.99961418927265 L 457 225.81885179464373 L 458 225.65606508109065 L 459 225.5112706576665 L 460 225.38448329767937 L 461 225.2757159371849 L 462 225.1849796736667 L 463 225.11228376490368 L 464 225.0576356280258 L 465 225.0210408387572 L 466 225.00250313084734 L 467 225.00202439568994 L 468 225.0196046821302 L 469 225.05524219645952 L 470 225.10893330259887 L 471 225.1806725224695 L 472 225.27045253655197 L 473 225.378264184633 L 474 225.50409646673995 L 475 225.64793654426327 L 476 225.8097697412664 L 477 225.98957954598308 L 478 226.18734761250204 L 479 226.403053762639 L 480 226.63667598799515 L 481 226.88819045220293 L 482 227.15757149335778 L 483 227.44479162663674 L 484 227.74982154710239 L 485 228.072630132693 L 486 228.41318444739792 L 487 228.77144974461788 L 488 229.14738947071024 L 489 229.54096526871868 L 490 229.9521369822865 L 491 230.3808626597539 L 492 230.82709855843828 L 493 231.2907991490973 L 494 231.77191712057405 L 495 232.2704033846245 L 496 232.7862070809256 L 497 233.31927558226468 L 498 233.86955449990924 L 499 234.43698768915567 L 500 235.02151725505806 L 501 235.62308355833522 L 502 236.24162522145537 L 503 236.8770791348986 L 504 237.5293804635961 L 505 238.19846265354496 L 506 238.8842574385986 L 507 239.58669484743248 L 508 240.3057032106825 L 509 241.0412091682578 L 510 241.7931376768258 L 511 242.56141201746843 L 512 243.34595380351 L 513 244.1466829885149 L 514 244.9635178744547 L 515 245.7963751200438 L 516 246.64516974924237 L 517 247.5098151599272 L 518 248.39022313272673 L 519 249.28630384002264 L 520 250.19796585511486 L 521 251.1251161615495 L 522 252.06766016260957 L 523 253.0255016909666 L 524 253.9985430184923 L 525 254.98668486623004 L 526 255.98982641452415 L 527 257.0078653133063 L 528 258.04069769253834 L 529 259.08821817281046 L 530 260.15031987609234 L 531 261.22689443663836 L 532 262.3178320120441 L 533 263.4230212944532 L 534 264.54234952191416 L 535 265.6757024898857 L 536 266.8229645628886 L 537 267.98401868630395 L 538 269.1587463983168 L 539 270.34702784200164 L 540 271.5487417775523 L 541 272.763765594652 L 542 273.99197532498226 L 543 275.2332456548723 L 544 276.4874499380846 L 545 277.75446020873596 L 546 279.03414719435455 L 547 280.32638032906874 L 548 281.6310277669297 L 549 282.94795639536267 L 550 284.27703184874844 L 551 285.6181185221334 L 552 286.9710795850644 L 553 288.3357769955497 L 554 289.7120715141438 L 555 291.09982271815346 L 556 292.4988890159649 L 557 293.909127661491 L 558 295.3303947687349 L 559 296.76254532647056 L 560 298.2054332130394 L 561 299.6589112112573 L 562 301.1228310234363 L 563 302.59704328651503 L 564 304.08139758729806 L 565 305.57574247780235 L 566 307.07992549071 L 567 308.5937931549238 L 568 310.11719101122577 L 569 311.64996362803754 L 570 313.1919546172777 L 571 314.74300665031853 L 572 316.3029614740386 L 573 317.87165992696873 L 574 319.44894195553087 L 575 321.0346466303694 L 576 322.62861216276957 L 577 324.2306759211651 L 578 325.8406744477318 L 579 327.4584434750645 L 580 329.08381794293746 L 581 330.7166320151452 L 582 332.3567190964233 L 583 334.00391184944533 L 584 335.65804221189615 L 585 337.31894141362017 L 586 338.9864399938398 L 587 340.6603678184459 L 588 342.34055409735686 L 589 344.0268274019436 L 590 345.7190156825205 L 591 347.4169462859001 L 592 349.12044597300803 L 593 350.82934093655894 L 594 352.5434568187901 L 595 354.2626187292508 L 596 355.986651262646 L 597 357.71537851673406 L 598 359.4486241102724 L 599 361.1862112010147 L 600 362.9279625037538 L 601 364.67370030840965 L 602 366.4232464981612 L 603 368.1764225676201 L 604 369.9330496410426 L 605 371.69294849058065 L 606 373.4559395545687 L 607 375.2218429558437 L 608 376.9904785200982 L 609 378.76166579426365 L 610 380.53522406492147 L 611 382.3109723767415 L 612 384.08872955094455 L 613 385.8683142037885 L 614 387.6495447650741 L 615 389.4322394966707 L 616 391.2162165110597 L 617 393.001293789891 L 618 394.78728920255537 L 619 396.5740205247669 L 620 398.36130545715514 L 621 400.14896164386465 L 622 401.9368066911618 L 623 403.724658186043 L 624 405.5123337148469 L 625 407.2996508818663 L 626 409.0864273279571 L 627 410.8724807491446 L 628 412.6576289152245 L 629 414.44168968835487 L 630 416.2244810416399 L 631 418.00582107770254 L 632 419.78552804724256 L 633 421.5634203675807 L 634 423.33931664118614 L 635 425.1130356741831 L 636 426.8843964948387 L 637 428.65321837202805 L 638 430.4193208336727 L 639 432.1825236851552 L 640 433.94264702770425 L 641 435.69951127674904 L 642 437.45293718024254 L 643 439.20274583695107 L 644 440.94875871470634 L 645 442.69079766862194 L 646 444.4286849592689 L 647 446.1622432708108 L 648 447.89129572909485 L 649 449.615665919698 L 650 451.33517790592765 L 651 453.0496562467707 L 652 454.75892601479484 L 653 456.4628128139964 L 654 458.161142797593 L 655 459.8537426857618 L 656 461.54043978331913 L 657 463.22106199734003 L 658 464.8954378547171 L 659 466.5633965196562 L 660 468.22476781110595 L 661 469.8793822201216 L 662 471.5270709271606 L 663 473.1676658193059 L 664 474.8009995074192 L 665 476.42690534322 L 666 478.0452174362876 L 667 479.6557706709874 L 668 481.25840072331795 L 669 482.85294407767594 L 670 484.43923804354034 L 671 486.01712077207156 L 672 487.5864312726244 L 673 489.1470094291741 L 674 490.6986960166533 L 675 492.2413327171969 L 676 493.7747621362957 L 677 495.29882781885533 L 678 496.813374265159 L 679 498.3182469467331 L 680 499.81329232211385 L 681 501.29835785251316 L 682 502.7732920173816 L 683 504.23794432986836 L 684 505.69216535217555 L 685 507.1358067108046 L 686 508.56872111169525 L 687 509.9907623552541 L 688 511.40178535127046 L 689 512.8016461337205 L 690 514.1902018754563 L 691 515.5673109027774 L 692 516.9328327098867 L 693 518.2866279732257 L 694 519.6285585656897 L 695 520.9584875707209 L 696 522.2762792962781 L 697 523.5817992886808 L 698 524.8749143463278 L 699 526.1554925332882 L 700 527.4234031927616 L 701 528.6785169604095 L 702 529.920705777555 L 703 531.1498429042474 L 704 532.3658029321939 L 705 533.5684617975553 L 706 534.7576967936039 L 707 535.9333865832427 L 708 537.0954112113866 L 709 538.2436521171999 L 710 539.3779921461938 L 711 540.49831556218 L 712 541.6045080590785 L 713 542.6964567725802 L 714 543.7740502916629 L 715 544.8371786699583 L 716 545.8857334369695 L 717 546.9196076091387 L 718 547.9386957007619 L 719 548.9428937347527 L 720 549.9320992532498 L 721 550.906211328072 L 722 551.8651305710144 L 723 552.8087591439903 L 724 553.7370007690129 L 725 554.6497607380181 L 726 555.5469459225286 L 727 556.428464783155 L 728 557.2942273789356 L 729 558.1441453765129 L 730 558.9781320591469 L 731 559.796102335562 L 732 560.597972748629 L 733 561.3836614838808 L 734 562.1530883778588 L 735 562.9061749262928 L 736 563.6428442921109 L 737 564.3630213132781 L 738 565.0666325104659 L 739 565.7536060945494 L 740 566.4238719739315 L 741 567.0773617616944 L 742 567.7140087825774 L 743 568.3337480797793 L 744 568.9365164215862 L 745 569.5222523078229 L 746 570.0908959761279 L 747 570.6423894080506 L 748 571.1766763349713 L 749 571.6937022438418 L 750 572.1934143827477 L 751 572.6757617662909 L 752 573.1406951807904 L 753 573.5881671893053 L 754 574.0181321364734 L 755 574.4305461531699 L 756 574.8253671609834 L 757 575.2025548765092 L 758 575.5620708154592 L 759 575.9038782965881 L 760 576.2279424454368 L 761 576.5342301978901 L 762 576.8227103035503 L 763 577.0933533289254 L 764 577.3461316604331 L 765 577.5810195072168 L 766 577.7979929037781 L 767 577.9970297124219 L 768 578.1781096255145 L 769 578.3412141675561 L 770 578.4863266970658 L 771 578.6134324082793 L 772 578.7225183326597 L 773 578.8135733402205 L 774 578.8865881406614 L 775 578.9415552843161 L 776 578.9784691629123 L 777 578.9973260101442 L 778 578.9981239020562 L 779 578.9808627572398 L 780 578.9455443368417 L 781 578.892172244384 L 782 578.8207519253966 L 783 578.7312906668616 L 784 578.6237975964698 L 785 578.4982836816894 L 786 578.3547617286473 L 787 578.1932463808218 L 788 578.0137541175493 L 789 577.8163032523422 L 790 577.6009139310211 L 791 577.367608129659 L 792 577.1164096523386 L 793 576.8473441287246 L 794 576.5604390114478 L 795 576.2557235733047 L 796 575.9332289042708 L 797 575.5929879083276 L 798 575.2350353001068 L 799 574.8594076013474 L 800 574.4661431371699 L 801 574.0552820321656 L 802 573.6268662063031 L 803 573.180939370651 L 804 572.7175470229181 L 805 572.2367364428113 L 806 571.7385566872118 L 807 571.2230585851697 L 808 570.690294732718 L 809 570.140319487506 L 810 569.5731889632538 L 811 568.9889610240264 L 812 568.3876952783303 L 813 567.7694530730314 L 814 567.1342974870963 L 815 566.4822933251554 L 816 565.8135071108918 L 817 565.128007080254 L 818 564.4258631744926 L 819 563.7071470330261 L 820 562.9719319861299 L 821 562.220293047455 L 822 561.4523069063748 L 823 560.6680519201603 L 824 559.867608105985 L 825 559.0510571327609 L 826 558.2184823128064 L 827 557.3699685933454 L 828 556.50560254784 L 829 555.6254723671584 L 830 554.7296678505757 L 831 553.8182803966125 L 832 552.8914029937093 L 833 551.9491302107392 L 834 550.9915581873579 L 835 550.0187846241963 L 836 549.0309087728914 L 837 548.0280314259592 L 838 547.0102549065118 L 839 545.977683057817 L 840 544.9304212327025 L 841 543.8685762828084 L 842 542.7922565476837 L 843 541.7015718437333 L 844 540.596633453013 L 845 539.4775541118763 L 846 538.3444479994703 L 847 537.1974307260878 L 848 536.0366193213708 L 849 534.8621322223702 L 850 533.6740892614614 L 851 532.4726116541187 L 852 531.2578219865461 L 853 530.0298442031719 L 854 528.7888035940016 L 855 527.5348267818345 L 856 526.2680417093447 L 857 524.9885776260278 L 858 523.6965650750119 L 859 522.3921358797404 L 860 521.0754231305209 L 861 519.746561170946 L 862 518.4056855841874 L 863 517.0529331791607 L 864 515.6884419765686 L 865 514.312351194817 L 866 512.9248012358121 L 867 511.52593367063474 L 868 510.1158912250956 L 869 508.6948177651733 L 870 507.2628582823361 L 871 505.8201588787471 L 872 504.36686675235984 L 873 502.90313018189767 L 874 501.429098511726 L 875 499.94492213661454 L 876 498.4507524863927 L 877 496.9467420104983 L 878 495.43304416242506 L 879 493.90981338406436 L 880 492.37720508994806 L 881 490.8353756513917 L 882 489.2844823805401 L 883 487.7246835143159 L 884 486.15613819827644 L 885 484.5790064703749 L 886 482.9934492446321 L 887 481.3996282947186 L 888 479.797706237449 L 889 478.18784651618955 L 890 476.57021338418343 L 891 474.9449718877909 L 892 473.3122878496503 L 893 471.67232785175906 L 894 470.0252592184773 L 895 468.37124999945627 L 896 466.71046895249106 L 897 465.04308552630425 L 898 463.3692698432556 L 899 461.68919268198533 L 900 460.0030254599892 L 901 458.3109402161293 L 902 456.6131095930801 L 903 454.9097068197151 L 904 453.20090569343154 L 905 451.48688056241815 L 906 449.7678063078663 L 907 448.0438583261276 L 908 446.31521251081665 L 909 444.58204523486694 L 910 442.8445333325342 L 911 441.10285408135417 L 912 439.3571851840554 L 913 437.6077047504287 L 914 435.8545912791528 L 915 434.09802363958494 L 916 432.33818105350895 L 917 430.57524307685003 L 918 428.8093895813547 L 919 427.0408007362388 L 920 425.26965698980365 L 921 423.49613905102694 L 922 421.7204278711239 L 923 419.94270462508484 L 924 418.16315069319063 L 925 416.38194764250585 L 926 414.5992772083544 L 927 412.81532127577566 L 928 411.0302618609688 L 929 409.24428109272026 L 930 407.45756119382196 L 931 405.67028446247895 L 932 403.88263325370986 L 933 402.09478996074023 L 934 400.30693699639477 L 935 398.5192567744846 L 936 396.731931691196 L 937 394.9451441064807 L 938 393.15907632545003 L 939 391.37391057977305 L 940 389.5898290090855 L 941 387.8070136424051 L 942 386.02564637955913 L 943 384.24590897262567 L 944 382.4679830073896 L 945 380.6920498848143 L 946 378.91829080253535 L 947 377.14688673637164 L 948 375.37801842186076 L 949 373.6118663358189 L 950 371.8486106779269 L 951 370.08843135234355 L 952 368.3315079493517 L 953 366.5780197270336 L 954 364.82814559298185 L 955 363.08206408604497 L 956 361.3399533581119 L 957 359.6019911559341 L 958 357.8683548029915 L 959 356.1392211813996 L 960 354.41476671386204 L 961 352.6951673456707 L 962 350.98059852675397 L 963 349.2712351937757 L 964 347.56725175228576 L 965 345.86882205892687 L 966 344.17611940369534 L 967 342.4893164922601 L 968 340.8085854283423 L 969 339.13409769615544 L 970 337.4660241429077 L 971 335.8045349613727 L 972 334.1497996725234 L 973 332.5019871082359 L 974 330.86126539406416 L 975 329.22780193208615 L 976 327.601763383823 L 977 325.98331565323616 L 978 324.372623869799 L 979 322.7698523716494 L 980 321.17516468882206 L 981 319.5887235265641 L 982 318.01069074873305 L 983 316.4412273612837 L 984 314.8804934958399 L 985 313.32864839335593 L 986 311.78585038787 L 987 310.2522568903495 L 988 308.72802437262914 L 989 307.21330835144806 L 990 305.70826337258154 L 991 304.21304299507267 L 992 302.7277997755651 L 993 301.25268525273765 L 994 299.7878499318432 L 995 298.3334432693516 L 996 296.8896136577023 L 997 295.4565084101628 L 998 294.03427374579894 L 999 292.6230547745556 L 1000 291.2229954824521 L 1001 289.8342387168902 L 1002 288.4569261720805 L 1003 287.09119837458513 L 1004 285.73719466897967 L 1005 284.39505320363594 L 1006 283.06491091662735 L 1007 281.7469035217557 L 1008 280.44116549470635 L 1009 279.1478300593263 L 1010 277.86702917403187 L 1011 276.5988935183451 L 1012 275.3435524795608 L 1013 274.101134139544 L 1014 272.87176526166377 L 1015 271.65557127785803 L 1016 270.45267627583667 L 1017 269.2632029864203 L 1018 268.087272771019 L 1019 266.92500560924816 L 1020 265.7765200866892 L 1021 264.6419333827888 L 1022 263.52136125890365 L 1023 262.41491804648933 L 1024 261.32271663543514 L 1025 260.24486846254615 L 1026 259.18148350017265 L 1027 258.13267024499066 L 1028 257.0985357069317 L 1029 256.0791853982644 L 1030 255.07472332282939 L 1031 254.0852519654278 L 1032 253.11087228136435 L 1033 252.15168368614778 L 1034 251.20778404534684 L 1035 250.2792696646054 L 1036 249.36623527981632 L 1037 248.46877404745584 L 1038 247.5869775350781 L 1039 246.72093571197362 L 1040 245.87073693998914 L 1041 245.0364679645122 L 1042 244.21821390562053 L 1043 243.4160582493975 L 1044 242.6300828394135 L 1045 241.86036786837624 L 1046 241.10699186994825 L 1047 240.37003171073425 L 1048 239.64956258243853 L 1049 238.94565799419314 L 1050 238.25838976505744 L 1051 237.5878280166912 L 1052 236.93404116619945 L 1053 236.29709591915218 L 1054 235.67705726277845 L 1055 235.07398845933574 L 1056 234.4879510396549 L 1057 233.919004796863 L 1058 233.36720778028203 L 1059 232.8326162895065 L 1060 232.3152848686589 L 1061 231.8152663008249 L 1062 231.3326116026678 L 1063 230.86737001922313 L 1064 230.41958901887452 L 1065 229.98931428851043 L 1066 229.57658972886253 L 1067 229.18145745002684 L 1068 228.8039577671671 L 1069 228.4441291964012 L 1070 228.10200845087192 L 1071 227.77763043700068 L 1072 227.47102825092625 L 1073 227.1822331751279 L 1074 226.91127467523367 L 1075 226.65818039701392 L 1076 226.42297616356086 L 1077 226.20568597265367 L 1078 226.00633199431 L 1079 225.8249345685241 L 1080 225.66151220319148 L 1081 225.51608157222043 L 1082 225.38865751383096 L 1083 225.2792530290409 L 1084 225.18787928033916 L 1085 225.11454559054712 L 1086 225.05925944186723 L 1087 225.02202647511962 L 1088 225.00285048916672 L 1089 225.0017334405255 L 1090 225.0186754431679 L 1091 225.05367476850924 L 1092 225.10672784558454 L 1093 225.17782926141282 L 1094 225.26697176154963 L 1095 225.37414625082684 L 1096 225.49934179428084 L 1097 225.64254561826826 L 1098 225.80374311176917 L 1099 225.9829178278778 L 1100 226.18005148548082 L 1101 226.39512397112225 L 1102 226.62811334105587 L 1103 226.878995823484 L 1104 227.14774582098295 L 1105 227.43433591311472 L 1106 227.73873685922487 L 1107 228.0609176014256 L 1108 228.4008452677647 L 1109 228.75848517557966 L 1110 229.13380083503606 L 1111 229.52675395285064 L 1112 229.93730443619864 L 1113 230.36541039680407 L 1114 230.8110281552137 L 1115 231.2741122452538 L 1116 231.75461541866875 L 1117 232.25248864994188 L 1118 232.76768114129789 L 1119 233.30014032788495 L 1120 233.84981188313859 L 1121 234.41663972432417 L 1122 235.0005660182592 L 1123 235.60153118721396 L 1124 236.21947391499003 L 1125 236.85433115317696 L 1126 237.50603812758413 L 1127 238.17452834485036 L 1128 238.85973359922798 L 1129 239.5615839795417 L 1130 240.28000787632166 L 1131 241.01493198911018 L 1132 241.7662813339398 L 1133 242.5339792509843 L 1134 243.3179474123802 L 1135 244.1181058302186 L 1136 244.934372864706 L 1137 245.76666523249463 L 1138 246.614898015179 L 1139 247.47898466796048 L 1140 248.35883702847755 L 1141 249.25436532580073 L 1142 250.16547818959188 L 1143 251.0920826594271 L 1144 252.0340841942807 L 1145 252.99138668217174 L 1146 253.96389244997007 L 1147 254.95150227336194 L 1148 255.95411538697363 L 1149 256.97162949465314 L 1150 258.00394077990654 L 1151 259.0509439164906 L 1152 260.1125320791597 L 1153 261.18859695456433 L 1154 262.2790287523029 L 1155 263.38371621612356 L 1156 264.50254663527517 L 1157 265.6354058560074 L 1158 266.78217829321795 L 1159 267.9427469422452 L 1160 269.11699339080684 L 1161 270.30479783108035 L 1162 271.5060390719285 L 1163 272.7205945512628 L 1164 273.9483403485493 L 1165 275.1891511974522 L 1166 276.4429004986142 L 1167 277.70946033257394 L 1168 278.9887014728175 L 1169 280.2804933989629 L 1170 281.58470431007714 L 1171 282.90120113812424 L 1172 284.2298495615415 L 1173 285.57051401894466 L 1174 286.9230577229594 L 1175 288.287342674177 L 1176 289.6632296752348 L 1177 291.0505783450183 L 1178 292.44924713298434 L 1179 293.859093333603 L 1180 295.27997310091905 L 1181 296.71174146322653 L 1182 298.1542523378616 L 1183 299.6073585461068 L 1184 301.0709118282078 L 1185 302.54476285849967 L 1186 304.02876126064393 L 1187 305.5227556229697 L 1188 307.026593513923 L 1189 308.54012149761934 L 1190 310.0631851494984 L 1191 311.5956290720802 L 1192 313.1372969108197 L 1193 314.68803137006086 L 1194 316.24767422908354 L 1195 317.81606635824824 L 1196 319.3930477352312 L 1197 320.978457461352 L 1198 322.57213377798894 L 1199 324.17391408308515 L 1200 325.7836349477366 L 1201 327.40113213286776 L 1202 329.0262406059889 L 1203 330.65879455803406 L 1204 332.2986274202782 L 1205 333.9455718813333 L 1206 335.5994599042174 L 1207 337.2601227435003 L 1208 338.92739096252046 L 1209 340.60109445067263 L 1210 342.2810624407636 L 1211 343.96712352643675 L 1212 345.65910567965904 L 1213 347.3568362682738 L 1214 349.0601420736142 L 1215 350.76884930817664 L 1216 352.4827836333518 L 1217 354.20177017721375 L 1218 355.92563355236007 L 1219 357.65419787380785 L 1220 359.38728677693865 L 1221 361.12472343549325 L 1222 362.8663305796128 L 1223 364.61193051392553 L 1224 366.36134513567794 L 1225 368.114395952905 L 1226 369.87090410264244 L 1227 371.63069036917614 L 1228 373.39357520232704 L 1229 375.1593787357706 L 1230 376.9279208053895 L 1231 378.699020967654 L 1232 380.47249851803355 L 1233 382.2481725094338 L 1234 384.02586177065865 L 1235 385.80538492489455 L 1236 387.5865604082176 L 1237 389.3692064881167 L 1238 391.1531412820366 L 1239 392.93818277593533 L 1240 394.7241488428548 L 1241 396.51085726150274 L 1242 398.29812573484617 L 1243 400.0857719087089 L 1244 401.8736133903786 L 1245 403.6614677672155 L 1246 405.4491526252646 L 1247 407.23648556786605 L 1248 409.02328423426695 L 1249 410.8093663182254 L 1250 412.5945495866123 L 1251 414.3786518980043 L 1252 416.1614912212678 L 1253 417.94288565413063 L 1254 419.7226534417434 L 1255 421.50061299522133 L 1256 423.27658291017354 L 1257 425.05038198521083 L 1258 426.8218292404339 L 1259 428.59074393589844 L 1260 430.35694559005594 L 1261 432.12025399816895 L 1262 433.88048925069575 L 1263 435.6374717516475 L 1264 437.39102223691225 L 1265 439.1409617925448 L 1266 440.88711187302135 L 1267 442.62929431945724 L 1268 444.3673313777829 L 1269 446.10104571688095 L 1270 447.83026044667923 L 1271 449.5547991361985 L 1272 451.2744858315534 L 1273 452.9891450739064 L 1274 454.6986019173676 L 1275 456.40268194684586 L 1276 458.10121129584377 L 1277 459.79401666419733 L 1278 461.4809253357574 L 1279 463.1617651960129 L 1280 464.8363647496499 L 1281 466.50455313805037 L 1282 468.1661601567245 L 1283 469.8210162726766 L 1284 471.46895264170223 L 1285 473.1098011256162 L 1286 474.7433943094063 L 1287 476.3695655183154 L 1288 477.9881488348472 L 1289 479.5989791156943 L 1290 481.2018920085882 L 1291 482.7967239690672 L 1292 484.38331227716475 L 1293 485.96149505400905 L 1294 487.5311112783413 L 1295 489.09200080294397 L 1296 490.6440043709806 L 1297 492.1869636322448 L 1298 493.7207211593171 L 1299 495.2451204636261 L 1300 496.76000601141567 L 1301 498.265223239614 L 1302 499.76061857160335 L 1303 501.2460394328893 L 1304 502.7213342666688 L 1305 504.186352549292 L 1306 505.640944805621 L 1307 507.08496262428065 L 1308 508.5182586728006 L 1309 509.94068671264756 L 1310 511.3521016141471 L 1311 512.7523593712891 L 1312 514.1413171164223 L 1313 515.5188331348303 L 1314 516.8847668791906 L 1315 518.2389789839149 L 1316 519.5813312793688 L 1317 520.9116868059681 L 1318 522.2299098281537 L 1319 523.5358658482402 L 1320 524.829421620139 L 1321 526.1104451629526 L 1322 527.3788057744414 L 1323 528.6343740443591 L 1324 529.8770218676555 L 1325 531.1066224575479 L 1326 532.3230503584567 L 1327 533.5261814588058 L 1328 534.7158930036852 L 1329 535.8920636073765 L 1330 537.0545732657367 L 1331 538.2033033684431 L 1332 539.3381367110945 L 1333 540.4589575071698 L 1334 541.5656513998412 L 1335 542.658105473643 L 1336 543.7362082659912 L 1337 544.7998497785563 L 1338 545.8489214884869 L 1339 546.8833163594813 L 1340 547.9029288527092 L 1341 548.9076549375798 L 1342 549.897392102355 L 1343 550.8720393646096 L 1344 551.8314972815342 L 1345 552.7756679600813 L 1346 553.7044550669528 L 1347 554.6177638384304 L 1348 555.5155010900421 L 1349 556.3975752260712 L 1350 557.2638962489018 L 1351 558.1143757682005 L 1352 558.9489270099349 L 1353 559.7674648252282 L 1354 560.5699056990454 L 1355 561.3561677587154 L 1356 562.1261707822837 L 1357 562.879836206698 L 1358 563.6170871358236 L 1359 564.3378483482888 L 1360 565.042046305161 L 1361 565.7296091574478 L 1362 566.4004667534298 L 1363 567.0545506458163 L 1364 567.6917940987306 L 1365 568.3121320945176 L 1366 568.9155013403786 L 1367 569.5018402748285 L 1368 570.071089073977 L 1369 570.6231896576321 L 1370 571.158085695227 L 1371 571.6757226115659 L 1372 572.1760475923941 L 1373 572.6590095897848 L 1374 573.1245593273488 L 1375 573.5726493052618 L 1376 574.0032338051107 L 1377 574.4162688945577 L 1378 574.8117124318239 L 1379 575.1895240699881 L 1380 575.5496652611035 L 1381 575.892099260131 L 1382 576.2167911286879 L 1383 576.523707738613 L 1384 576.8128177753466 L 1385 577.0840917411253 L 1386 577.3375019579921 L 1387 577.5730225706193 L 1388 577.7906295489481 L 1389 577.9903006906388 L 1390 578.1720156233375 L 1391 578.3357558067535 L 1392 578.4815045345515 L 1393 578.6092469360563 L 1394 578.7189699777697 L 1395 578.8106624647006 L 1396 578.8843150415069 L 1397 578.9399201934502 L 1398 578.9774722471627 L 1399 578.9969673712255 L 1400 578.9984035765605 L 1401 578.9817807166319 L 1402 578.9471004874626 L 1403 578.8943664274603 L 1404 578.8235839170568 L 1405 578.7347601781589 L 1406 578.6279042734118 L 1407 578.5030271052735 L 1408 578.3601414149043 L 1409 578.1992617808648 L 1410 578.0204046176298 L 1411 577.8235881739128 L 1412 577.6088325308045 L 1413 577.3761595997241 L 1414 577.1255931201831 L 1415 576.8571586573634 L 1416 576.5708835995091 L 1417 576.266797155132 L 1418 575.9449303500314 L 1419 575.6053160241288 L 1420 575.2479888281164 L 1421 574.8729852199231 L 1422 574.4803434609935 L 1423 574.0701036123845 L 1424 573.6423075306785 L 1425 573.1969988637117 L 1426 572.7342230461213 L 1427 572.2540272947102 L 1428 571.7564606036289 L 1429 571.2415737393765 L 1430 570.7094192356217 L 1431 570.1600513878426 L 1432 569.5935262477866 L 1433 569.0099016177518 L 1434 568.409237044689 L 1435 567.7915938141273 L 1436 567.1570349439194 L 1437 566.5056251778136 L 1438 565.8374309788471 L 1439 565.1525205225652 L 1440 564.4509636900646 L 1441 563.7328320608647 L 1442 562.9981989056035 L 1443 562.2471391785622 L 1444 561.4797295100173 L 1445 560.6960481984224 L 1446 559.8961752024193 L 1447 559.0801921326799 L 1448 558.2481822435795 L 1449 557.4002304247023 L 1450 556.5364231921801 L 1451 555.6568486798657 L 1452 554.7615966303395 L 1453 553.850758385754 L 1454 552.9244268785145 L 1455 551.9826966217961 L 1456 551.0256636999013 L 1457 550.0534257584566 L 1458 549.0660819944497 L 1459 548.063733146108 L 1460 547.0464814826211 L 1461 546.0144307937056 L 1462 544.9676863790163 L 1463 543.9063550374016 L 1464 542.8305450560076 L 1465 541.740366199229 L 1466 540.6359296975104 L 1467 539.5173482359975 L 1468 538.3847359430393 L 1469 537.2382083785445 L 1470 536.0778825221905 L 1471 534.9038767614871 L 1472 533.7163108796997 L 1473 532.5153060436259 L 1474 531.3009847912336 L 1475 530.0734710191588 L 1476 528.8328899700641 L 1477 527.5793682198598 L 1478 526.3130336647907 L 1479 525.0340155083857 L 1480 523.7424442482759 L 1481 522.4384516628795 L 1482 521.1221707979576 L 1483 519.7937359530372 L 1484 518.4532826677116 L 1485 517.1009477078097 L 1486 515.736869051442 L 1487 514.3611858749229 L 1488 512.9740385385708 L 1489 511.57556857238717 L 1490 510.1659186616154 L 1491 508.74523263218435 L 1492 507.3136554360325 L 1493 505.8713331363191 L 1494 504.41841289252153 L 1495 502.9550429454205 L 1496 501.48137260197444 L 1497 499.9975522200873 L 1498 498.5037331932665 L 1499 497.0000679351764 L 1500 495.48670986408797 L 1501 493.9638133872256 L 1502 492.43153388501213 L 1503 490.89002769521665 L 1504 489.33945209700295 L 1505 487.7799652948822 L 1506 486.21172640257157 L 1507 484.63489542676047 L 1508 483.0496332507834 L 1509 481.45610161820747 L 1510 479.85446311632813 L 1511 478.2448811595811 L 1512 476.6275199728691 L 1513 475.0025445748062 L 1514 473.3701207608804 L 1515 471.73041508653864 L 1516 470.08359485019275 L 1517 468.42982807614976 L 1518 466.7692834974688 L 1519 465.1021305387454 L 1520 463.42853929882517 L 1521 461.7486805334479 L 1522 460.0627256378267 L 1523 458.37084662916004 L 1524 456.67321612908063 L 1525 454.9700073460434 L 1526 453.2613940576531 L 1527 451.54755059293285 L 1528 449.82865181453894 L 1529 448.104873100919 L 1530 446.37639032841787 L 1531 444.64337985333356 L 1532 442.9060184939237 L 1533 441.1644835123637 L 1534 439.4189525966627 L 1535 437.66960384253275 L 1536 435.9166157352183 L 1537 434.1601671312852 L 1538 432.40043724037264 L 1539 430.63760560690685" stroke-linecap="round" stroke-linejoin="round" stroke-miterlimit="10" stroke-width="16"/></g></svg>
